# xmcd CD database file
#
# Track frame offsets:
#	187
#	18835
#	39537
#	58185
#
# Disc length: 1048 seconds
#
# Revision: 0
# Processed by: cddbd v1.5.1PL0 Copyright (c) Steve Scherf et al.
# Submitted via: CDex 1.51
#
DISCID=2b041604
DTITLE=福山雅治 - All My Loving
DYEAR=1993
DGENRE=JPop
TTITLE0=All My Loving
TTITLE1=恋人
TTITLE2=All My Loving（カラオケ)
TTITLE3=恋人(カラオケ)
EXTD=YEAR: 1993
EXTT0=
EXTT1=
EXTT2=
EXTT3=
PLAYORDER=
